<?xml version="1.0" standalone="no"?>
<svg xmlns="http://www.w3.org/2000/svg" viewBox="0 0 44 69" width="44" height="69"><g fill="#ead017" color="#ead017" transform="translate(0 0) scale(0.9166667) "><svg width="48.0" height="46.0" x="0.0" y="0.0" viewBox="0 0 48 46"><path fill="currentColor" fill-rule="evenodd" d="M17.265 0L0 9.915v19.834l17.265 9.916 9.094-5.223 6.159 10.642L48 18.326H34.53V9.915L17.265 0zm4.969 21.326h20.563l-10.28 17.77-10.283-17.77z"></path></svg></g><path fill="#000000" fill-rule="nonzero" d="M8.18 18.50L8.18 18.50L6.53 16.82Q5.66 17.21 4.73 17.21L4.73 17.21Q3.46 17.21 2.38 16.56Q1.30 15.91 0.65 14.81Q0 13.70 0 12.38L0 12.38L0.02 4.78Q0.02 3.50 0.65 2.41Q1.27 1.32 2.34 0.66Q3.41 0 4.73 0L4.73 0Q6 0 7.07 0.64Q8.14 1.27 8.77 2.35Q9.41 3.43 9.41 4.78L9.41 4.78L9.43 12.38Q9.43 13.08 9.24 13.73Q9.05 14.38 8.74 14.93L8.74 14.93L10.22 16.44Q10.32 16.54 10.25 16.61L10.25 16.61L8.35 18.50Q8.26 18.58 8.18 18.50ZM4.73 14.30L4.73 14.30Q5.54 14.30 6.04 13.69Q6.53 13.08 6.53 12.38L6.53 12.38L6.50 4.78Q6.50 4.01 6 3.44Q5.50 2.88 4.73 2.88L4.73 2.88Q3.91 2.88 3.42 3.46Q2.93 4.03 2.93 4.78L2.93 4.78L2.93 12.38Q2.93 13.25 3.49 13.78Q4.06 14.30 4.73 14.30ZM15.89 17.21L15.89 17.21Q14.62 17.21 13.54 16.55Q12.46 15.89 11.82 14.78Q11.18 13.68 11.18 12.36L11.18 12.36L11.23 0.36Q11.23 0.26 11.33 0.26L11.33 0.26L14.02 0.26Q14.11 0.26 14.11 0.36L14.11 0.36L14.11 12.36Q14.11 13.18 14.63 13.74Q15.14 14.30 15.89 14.30L15.89 14.30Q16.66 14.30 17.17 13.74Q17.69 13.18 17.69 12.36L17.69 12.36L17.69 0.36Q17.69 0.26 17.78 0.26L17.78 0.26L20.47 0.26Q20.57 0.26 20.57 0.36L20.57 0.36L20.62 12.36Q20.62 13.70 19.98 14.81Q19.34 15.91 18.28 16.56Q17.21 17.21 15.89 17.21ZM26.90 16.97L22.61 16.97Q22.51 16.97 22.51 16.85L22.51 16.85L22.56 0.36Q22.56 0.26 22.66 0.26L22.66 0.26L27.26 0.26Q28.63 0.26 29.71 0.92Q30.79 1.58 31.42 2.66Q32.04 3.74 32.04 5.02L32.04 5.02Q32.04 6.05 31.57 6.94Q31.10 7.82 30.46 8.38L30.46 8.38Q31.15 9.07 31.54 9.98Q31.92 10.90 31.92 11.90L31.92 11.90Q31.92 13.30 31.25 14.45Q30.58 15.60 29.44 16.28Q28.30 16.97 26.90 16.97L26.90 16.97ZM25.44 3.12L25.44 6.89L27.26 6.89Q28.10 6.89 28.62 6.30Q29.14 5.71 29.14 5.02L29.14 5.02Q29.14 4.25 28.58 3.68Q28.03 3.12 27.26 3.12L27.26 3.12L25.44 3.12ZM25.44 9.79L25.42 14.04L26.90 14.04Q27.77 14.04 28.39 13.40Q29.02 12.77 29.02 11.90L29.02 11.90Q29.02 11.04 28.39 10.42Q27.77 9.79 26.90 9.79L26.90 9.79L25.44 9.79ZM32.35 16.85L32.35 16.85L35.33 0.36Q35.35 0.26 35.45 0.26L35.45 0.26L38.93 0.26Q39.02 0.26 39.05 0.36L39.05 0.36L41.90 16.85Q41.93 16.97 41.81 16.97L41.81 16.97L39.14 16.97Q39.05 16.97 39.02 16.85L39.02 16.85L38.76 15.10L35.50 15.10L35.23 16.85Q35.21 16.97 35.11 16.97L35.11 16.97L32.45 16.97Q32.35 16.97 32.35 16.85ZM37.06 5.78L35.98 12.53L38.28 12.53L37.30 5.78L37.15 4.90L37.06 5.78Z" transform="translate(1.046, 50.167)"></path></svg>